<svg width="210" height="185" viewBox="0 0 210 185" fill="none" xmlns="http://www.w3.org/2000/svg">
<path d="M139.945 109.674C139.959 109.68 139.976 109.682 139.99 109.674C140.041 109.648 140.217 109.549 140.217 109.396C140.217 109.31 140.146 109.239 140.061 109.239C140.027 109.239 139.999 109.251 139.97 109.271C139.942 109.251 139.914 109.239 139.88 109.239C139.795 109.239 139.724 109.31 139.724 109.396C139.718 109.549 139.894 109.648 139.945 109.674Z" stroke="#F2F2F2" stroke-width="3" stroke-miterlimit="10"/>
<path d="M139.968 109.734C139.951 109.734 139.939 109.745 139.939 109.762V109.927C139.939 109.944 139.951 109.955 139.968 109.955C139.985 109.955 139.996 109.944 139.996 109.927V109.762C139.993 109.745 139.985 109.734 139.968 109.734Z" stroke="#F2F2F2" stroke-width="3" stroke-miterlimit="10"/>
<path d="M140.05 109.708V109.873C140.05 109.89 140.061 109.901 140.078 109.901C140.095 109.901 140.107 109.89 140.107 109.873V109.708C140.107 109.691 140.095 109.68 140.078 109.68C140.061 109.68 140.05 109.691 140.05 109.708Z" stroke="#F2F2F2" stroke-width="3" stroke-miterlimit="10"/>
<path d="M139.829 109.708V109.82C139.829 109.837 139.84 109.849 139.857 109.849C139.874 109.849 139.886 109.837 139.886 109.82V109.708C139.886 109.691 139.874 109.68 139.857 109.68C139.84 109.68 139.829 109.691 139.829 109.708Z" stroke="#F2F2F2" stroke-width="3" stroke-miterlimit="10"/>
<path d="M140.407 109.265C140.424 109.265 140.436 109.254 140.436 109.237V109.208C140.436 109.191 140.424 109.18 140.407 109.18C140.39 109.18 140.379 109.191 140.379 109.208V109.237C140.379 109.254 140.39 109.265 140.407 109.265Z" stroke="#F2F2F2" stroke-width="3" stroke-miterlimit="10"/>
<path d="M140.461 109.322H140.49C140.507 109.322 140.518 109.311 140.518 109.294C140.518 109.276 140.507 109.265 140.49 109.265H140.461C140.444 109.265 140.433 109.276 140.433 109.294C140.435 109.311 140.447 109.322 140.461 109.322Z" stroke="#F2F2F2" stroke-width="3" stroke-miterlimit="10"/>
<path d="M140.436 109.376V109.347C140.436 109.33 140.424 109.319 140.407 109.319C140.39 109.319 140.379 109.33 140.379 109.347V109.376C140.379 109.393 140.39 109.404 140.407 109.404C140.424 109.404 140.436 109.393 140.436 109.376Z" stroke="#F2F2F2" stroke-width="3" stroke-miterlimit="10"/>
<path d="M140.325 109.322H140.354C140.371 109.322 140.382 109.311 140.382 109.294C140.382 109.276 140.371 109.265 140.354 109.265H140.325C140.308 109.265 140.296 109.276 140.296 109.294C140.296 109.311 140.308 109.322 140.325 109.322Z" stroke="#F2F2F2" stroke-width="3" stroke-miterlimit="10"/>
<path d="M140.407 109.762C140.407 109.745 140.396 109.734 140.379 109.734C140.362 109.734 140.351 109.745 140.351 109.762V109.791C140.351 109.808 140.362 109.819 140.379 109.819C140.396 109.819 140.407 109.808 140.407 109.791V109.762Z" stroke="#F2F2F2" stroke-width="3" stroke-miterlimit="10"/>
<path d="M140.436 109.873H140.464C140.482 109.873 140.493 109.862 140.493 109.845C140.493 109.827 140.482 109.816 140.464 109.816H140.436C140.419 109.816 140.407 109.827 140.407 109.845C140.407 109.862 140.419 109.873 140.436 109.873Z" stroke="#F2F2F2" stroke-width="3" stroke-miterlimit="10"/>
<path d="M140.379 109.956C140.396 109.956 140.407 109.944 140.407 109.927V109.899C140.407 109.882 140.396 109.87 140.379 109.87C140.362 109.87 140.351 109.882 140.351 109.899V109.927C140.353 109.944 140.362 109.956 140.379 109.956Z" stroke="#F2F2F2" stroke-width="3" stroke-miterlimit="10"/>
<path d="M140.325 109.816H140.297C140.279 109.816 140.268 109.827 140.268 109.845C140.268 109.862 140.279 109.873 140.297 109.873H140.325C140.342 109.873 140.354 109.862 140.354 109.845C140.354 109.827 140.342 109.816 140.325 109.816Z" stroke="#F2F2F2" stroke-width="3" stroke-miterlimit="10"/>
<path d="M140.544 109.487C140.559 109.487 140.572 109.474 140.572 109.458C140.572 109.442 140.559 109.43 140.544 109.43C140.528 109.43 140.515 109.442 140.515 109.458C140.515 109.474 140.528 109.487 140.544 109.487Z" stroke="#F2F2F2" stroke-width="3" stroke-miterlimit="10"/>
<path d="M140.268 109.708C140.284 109.708 140.297 109.696 140.297 109.68C140.297 109.664 140.284 109.651 140.268 109.651C140.252 109.651 140.24 109.664 140.24 109.68C140.24 109.696 140.252 109.708 140.268 109.708Z" stroke="#F2F2F2" stroke-width="3" stroke-miterlimit="10"/>
<path d="M140.461 109.651C140.477 109.651 140.489 109.639 140.489 109.623C140.489 109.607 140.477 109.594 140.461 109.594C140.445 109.594 140.433 109.607 140.433 109.623C140.433 109.639 140.445 109.651 140.461 109.651Z" stroke="#F2F2F2" stroke-width="3" stroke-miterlimit="10"/>
<path d="M140.296 109.487C140.312 109.487 140.325 109.474 140.325 109.458C140.325 109.442 140.312 109.43 140.296 109.43C140.281 109.43 140.268 109.442 140.268 109.458C140.268 109.474 140.281 109.487 140.296 109.487Z" stroke="#F2F2F2" stroke-width="3" stroke-miterlimit="10"/>
<path d="M139.528 109.265C139.545 109.265 139.557 109.254 139.557 109.237V109.208C139.557 109.191 139.545 109.18 139.528 109.18C139.511 109.18 139.5 109.191 139.5 109.208V109.237C139.5 109.254 139.511 109.265 139.528 109.265Z" stroke="#F2F2F2" stroke-width="3" stroke-miterlimit="10"/>
<path d="M139.443 109.322H139.472C139.489 109.322 139.5 109.311 139.5 109.294C139.5 109.276 139.489 109.265 139.472 109.265H139.443C139.426 109.265 139.415 109.276 139.415 109.294C139.417 109.311 139.429 109.322 139.443 109.322Z" stroke="#F2F2F2" stroke-width="3" stroke-miterlimit="10"/>
<path d="M139.554 109.376V109.347C139.554 109.33 139.543 109.319 139.526 109.319C139.508 109.319 139.497 109.33 139.497 109.347V109.376C139.497 109.393 139.508 109.404 139.526 109.404C139.543 109.404 139.554 109.393 139.554 109.376Z" stroke="#F2F2F2" stroke-width="3" stroke-miterlimit="10"/>
<path d="M139.582 109.322H139.611C139.628 109.322 139.639 109.311 139.639 109.294C139.639 109.276 139.628 109.265 139.611 109.265H139.582C139.565 109.265 139.554 109.276 139.554 109.294C139.554 109.311 139.565 109.322 139.582 109.322Z" stroke="#F2F2F2" stroke-width="3" stroke-miterlimit="10"/>
<path d="M139.582 109.762C139.582 109.745 139.571 109.734 139.554 109.734C139.537 109.734 139.525 109.745 139.525 109.762V109.791C139.525 109.808 139.537 109.819 139.554 109.819C139.571 109.819 139.582 109.808 139.582 109.791V109.762Z" stroke="#F2F2F2" stroke-width="3" stroke-miterlimit="10"/>
<path d="M139.471 109.873H139.5C139.517 109.873 139.529 109.862 139.529 109.845C139.529 109.827 139.517 109.816 139.5 109.816H139.471C139.454 109.816 139.443 109.827 139.443 109.845C139.443 109.862 139.454 109.873 139.471 109.873Z" stroke="#F2F2F2" stroke-width="3" stroke-miterlimit="10"/>
<path d="M139.554 109.956C139.571 109.956 139.582 109.944 139.582 109.927V109.899C139.582 109.882 139.571 109.87 139.554 109.87C139.537 109.87 139.525 109.882 139.525 109.899V109.927C139.528 109.944 139.537 109.956 139.554 109.956Z" stroke="#F2F2F2" stroke-width="3" stroke-miterlimit="10"/>
<path d="M139.611 109.873H139.639C139.656 109.873 139.668 109.862 139.668 109.845C139.668 109.827 139.656 109.816 139.639 109.816H139.611C139.593 109.816 139.582 109.827 139.582 109.845C139.582 109.862 139.593 109.873 139.611 109.873Z" stroke="#F2F2F2" stroke-width="3" stroke-miterlimit="10"/>
<path d="M139.389 109.487C139.405 109.487 139.418 109.474 139.418 109.458C139.418 109.442 139.405 109.43 139.389 109.43C139.374 109.43 139.361 109.442 139.361 109.458C139.361 109.474 139.374 109.487 139.389 109.487Z" stroke="#F2F2F2" stroke-width="3" stroke-miterlimit="10"/>
<path d="M139.664 109.708C139.68 109.708 139.693 109.696 139.693 109.68C139.693 109.664 139.68 109.651 139.664 109.651C139.648 109.651 139.636 109.664 139.636 109.68C139.636 109.696 139.648 109.708 139.664 109.708Z" stroke="#F2F2F2" stroke-width="3" stroke-miterlimit="10"/>
<path d="M139.471 109.651C139.487 109.651 139.5 109.639 139.5 109.623C139.5 109.607 139.487 109.594 139.471 109.594C139.456 109.594 139.443 109.607 139.443 109.623C139.443 109.639 139.456 109.651 139.471 109.651Z" stroke="#F2F2F2" stroke-width="3" stroke-miterlimit="10"/>
<path d="M139.636 109.487C139.652 109.487 139.664 109.474 139.664 109.458C139.664 109.442 139.652 109.43 139.636 109.43C139.62 109.43 139.607 109.442 139.607 109.458C139.607 109.474 139.62 109.487 139.636 109.487Z" stroke="#F2F2F2" stroke-width="3" stroke-miterlimit="10"/>
<path d="M139.712 110.009L140.149 110.56H140.22L139.786 110.009H139.712Z" stroke="#F2F2F2" stroke-width="3" stroke-miterlimit="10"/>
<path d="M139.582 110.009C139.576 110.009 139.568 110.012 139.565 110.015L139.401 110.154C139.389 110.166 139.387 110.183 139.398 110.194C139.409 110.205 139.426 110.208 139.438 110.197L139.559 110.097V110.481C139.559 110.526 139.596 110.563 139.642 110.563H140.084L139.647 110.012H139.582V110.009ZM139.775 110.45C139.775 110.467 139.764 110.478 139.747 110.478H139.636C139.619 110.478 139.608 110.467 139.608 110.45C139.608 110.433 139.619 110.421 139.636 110.421H139.747C139.764 110.424 139.775 110.435 139.775 110.45Z" stroke="#F2F2F2" stroke-width="3" stroke-miterlimit="10"/>
<path d="M140.367 110.015C140.364 110.012 140.356 110.009 140.35 110.009H139.854L140.288 110.56H140.296C140.342 110.56 140.379 110.523 140.379 110.478V110.095L140.501 110.194C140.512 110.205 140.532 110.202 140.54 110.191C140.552 110.18 140.549 110.16 140.537 110.151L140.367 110.015Z" stroke="#F2F2F2" stroke-width="3" stroke-miterlimit="10"/>
<path d="M105.217 82.4253C104.298 82.4253 103.311 82.2179 102.282 81.806L102.239 81.7889L102.197 81.7691C100.456 80.9424 94.3505 77.8431 88.8408 72.6274C85.9966 69.9372 83.748 67.0879 82.1571 64.1562C80.2232 60.5967 79.2393 56.8895 79.2393 53.1369C79.2393 50.887 79.693 48.6882 80.5862 46.6031C81.4454 44.6003 82.6704 42.7936 84.2272 41.234C85.7839 39.6744 87.5874 38.4472 89.5866 37.5864C91.6679 36.6916 93.8627 36.2371 96.1086 36.2371C99.1966 36.2371 102.183 37.1319 104.998 38.9017C107.814 37.1319 110.8 36.2371 113.888 36.2371C116.134 36.2371 118.329 36.6916 120.41 37.5864C122.409 38.4472 124.213 39.6744 125.769 41.234C127.326 42.7936 128.551 44.6003 129.41 46.6031C130.304 48.6882 130.757 50.887 130.757 53.1369C130.757 56.8895 129.776 60.5967 127.84 64.1562C126.246 67.0851 123.997 69.9344 121.156 72.6274C115.709 77.7834 109.68 80.8714 107.862 81.7378C107.077 82.1952 106.184 82.4253 105.217 82.4253ZM103.45 78.9993C104.309 79.3373 105.497 79.6186 106.374 79.0902L106.439 79.0504L106.507 79.0192C108.146 78.2408 113.894 75.3233 119.08 70.4145C121.692 67.943 123.745 65.3494 125.183 62.6989C126.873 59.5911 127.729 56.3725 127.729 53.1312C127.729 51.296 127.357 49.5007 126.629 47.799C125.923 46.1514 124.913 44.6628 123.629 43.3788C122.344 42.0947 120.861 41.0806 119.216 40.3732C117.515 39.6403 115.726 39.271 113.894 39.271C112.484 39.271 111.086 39.504 109.737 39.967C108.429 40.413 107.128 41.0863 105.875 41.9669L105.004 42.5777L104.133 41.9669C102.88 41.0863 101.579 40.413 100.271 39.967C98.9215 39.5068 97.5236 39.271 96.1142 39.271C94.2824 39.271 92.4903 39.6432 90.7917 40.3732C89.147 41.0806 87.6611 42.0919 86.3794 43.3788C85.0949 44.6657 84.0854 46.1514 83.3793 47.799C82.6477 49.5035 82.2791 51.296 82.2791 53.1312C82.2791 56.3697 83.1354 59.5883 84.8255 62.6989C86.266 65.3465 88.319 67.943 90.9278 70.4145C96.0632 75.2807 101.754 78.1925 103.45 78.9993Z" fill="#F2F2F2"/>
<path d="M104.999 109.441C103.81 109.441 102.736 109.021 101.973 108.254C101.21 107.487 100.788 106.413 100.788 105.223V89.0301C100.788 87.8398 101.207 86.7631 101.973 85.999C102.739 85.232 103.81 84.8115 104.999 84.8115C106.187 84.8115 107.261 85.232 108.024 85.999C108.79 86.766 109.209 87.8398 109.209 89.0301V105.223C109.209 106.413 108.79 107.489 108.024 108.254C107.261 109.021 106.187 109.441 104.999 109.441ZM104.999 87.8512C104.219 87.8512 103.822 88.2489 103.822 89.0301V105.223C103.822 106.004 104.219 106.401 104.999 106.401C105.778 106.401 106.175 106.004 106.175 105.223V89.0301C106.178 88.2489 105.781 87.8512 104.999 87.8512Z" fill="#F2F2F2"/>
<path d="M115.777 104.044C114.589 104.044 113.514 103.623 112.751 102.856C111.986 102.089 111.566 101.015 111.566 99.8251V83.6326C111.566 82.4423 111.986 81.3657 112.751 80.6015C113.517 79.8345 114.589 79.4141 115.777 79.4141C116.965 79.4141 118.04 79.8345 118.803 80.6015C119.568 81.3685 119.988 82.4423 119.988 83.6326V99.8251C119.988 101.015 119.568 102.092 118.803 102.856C118.037 103.623 116.962 104.044 115.777 104.044ZM115.777 82.4537C114.997 82.4537 114.6 82.8514 114.6 83.6326V99.8251C114.6 100.606 114.997 101.004 115.777 101.004C116.557 101.004 116.954 100.606 116.954 99.8251V83.6326C116.954 82.8514 116.557 82.4537 115.777 82.4537Z" fill="#F2F2F2"/>
<path d="M94.2232 98.6461C93.035 98.6461 91.9603 98.2257 91.1975 97.4587C90.4319 96.6917 90.0122 95.6179 90.0122 94.4276V83.6326C90.0122 82.4423 90.4319 81.3657 91.1975 80.6015C91.9631 79.8373 93.035 79.4141 94.2232 79.4141C95.4113 79.4141 96.486 79.8345 97.2488 80.6015C98.0116 81.3685 98.4341 82.4423 98.4341 83.6326V94.4276C98.4341 95.6179 98.0144 96.6945 97.2488 97.4587C96.486 98.2257 95.4113 98.6461 94.2232 98.6461ZM94.2232 82.4537C93.4433 82.4537 93.0464 82.8514 93.0464 83.6326V94.4276C93.0464 95.2088 93.4433 95.6065 94.2232 95.6065C95.003 95.6065 95.3999 95.2088 95.3999 94.4276V83.6326C95.3999 82.8514 95.0058 82.4537 94.2232 82.4537Z" fill="#F2F2F2"/>
<path d="M148.104 41.9725C146.915 41.9725 145.841 41.5521 145.078 40.7851C144.312 40.0181 143.893 38.9443 143.893 37.754V35.0552C143.893 33.8649 144.312 32.7883 145.078 32.0241C145.844 31.2571 146.915 30.8367 148.104 30.8367C149.292 30.8367 150.366 31.2571 151.129 32.0241C151.895 32.7911 152.314 33.8649 152.314 35.0552V37.754C152.314 38.9443 151.895 40.0209 151.129 40.7851C150.364 41.5492 149.289 41.9725 148.104 41.9725ZM148.104 33.8763C147.324 33.8763 146.927 34.274 146.927 35.0552V37.754C146.927 38.5352 147.324 38.9329 148.104 38.9329C148.883 38.9329 149.28 38.5352 149.28 37.754V35.0552C149.28 34.2712 148.883 33.8763 148.104 33.8763Z" fill="#F2F2F2"/>
<path d="M156.185 47.37H153.491C152.303 47.37 151.228 46.9495 150.466 46.1825C149.7 45.4155 149.28 44.3417 149.28 43.1514C149.28 41.9611 149.7 40.8845 150.466 40.1203C151.231 39.3533 152.303 38.9329 153.491 38.9329H156.185C157.373 38.9329 158.448 39.3533 159.211 40.1203C159.976 40.8873 160.396 41.9611 160.396 43.1514C160.396 44.3417 159.976 45.4184 159.211 46.1825C158.445 46.9467 157.37 47.37 156.185 47.37ZM153.491 41.9725C152.711 41.9725 152.314 42.3702 152.314 43.1514C152.314 43.9326 152.711 44.3303 153.491 44.3303H156.185C156.965 44.3303 157.362 43.9326 157.362 43.1514C157.362 42.3702 156.965 41.9725 156.185 41.9725H153.491Z" fill="#F2F2F2"/>
<path d="M148.104 55.4662C146.915 55.4662 145.841 55.0457 145.078 54.2787C144.312 53.5117 143.893 52.4379 143.893 51.2476V48.5489C143.893 47.3586 144.312 46.2819 145.078 45.5178C145.844 44.7508 146.915 44.3303 148.104 44.3303C149.292 44.3303 150.366 44.7508 151.129 45.5178C151.895 46.2848 152.314 47.3586 152.314 48.5489V51.2476C152.314 52.4379 151.895 53.5146 151.129 54.2787C150.364 55.0429 149.289 55.4662 148.104 55.4662ZM148.104 47.37C147.324 47.37 146.927 47.7677 146.927 48.5489V51.2476C146.927 52.0288 147.324 52.4265 148.104 52.4265C148.883 52.4265 149.28 52.0288 149.28 51.2476V48.5489C149.28 47.7648 148.883 47.37 148.104 47.37Z" fill="#F2F2F2"/>
<path d="M142.715 47.37H140.021C138.833 47.37 137.759 46.9495 136.996 46.1825C136.23 45.4155 135.811 44.3417 135.811 43.1514C135.811 41.9611 136.23 40.8845 136.996 40.1203C137.761 39.3533 138.833 38.9329 140.021 38.9329H142.715C143.904 38.9329 144.978 39.3533 145.741 40.1203C146.507 40.8873 146.926 41.9611 146.926 43.1514C146.926 44.3417 146.507 45.4184 145.741 46.1825C144.975 46.9467 143.901 47.37 142.715 47.37ZM140.021 41.9725C139.242 41.9725 138.845 42.3702 138.845 43.1514C138.845 43.9326 139.242 44.3303 140.021 44.3303H142.715C143.495 44.3303 143.892 43.9326 143.892 43.1514C143.892 42.3702 143.495 41.9725 142.715 41.9725H140.021Z" fill="#F2F2F2"/>
<path d="M145.41 95.9474C144.222 95.9474 143.147 95.5269 142.384 94.7599C141.621 93.9929 141.199 92.9191 141.199 91.7288V89.0301C141.199 87.8398 141.618 86.7631 142.384 85.999C143.15 85.232 144.222 84.8115 145.41 84.8115C146.598 84.8115 147.673 85.232 148.435 85.999C149.201 86.766 149.621 87.8398 149.621 89.0301V91.7288C149.621 92.9191 149.201 93.9958 148.435 94.7599C147.67 95.5241 146.595 95.9474 145.41 95.9474ZM145.41 87.8512C144.63 87.8512 144.233 88.2489 144.233 89.0301V91.7288C144.233 92.51 144.63 92.9077 145.41 92.9077C146.189 92.9077 146.586 92.51 146.586 91.7288V89.0301C146.586 88.2489 146.189 87.8512 145.41 87.8512Z" fill="#F2F2F2"/>
<path d="M153.491 101.345H150.797C149.609 101.345 148.535 100.924 147.772 100.157C147.006 99.3904 146.586 98.3166 146.586 97.1263C146.586 95.936 147.006 94.8593 147.772 94.0952C148.537 93.3282 149.609 92.9077 150.797 92.9077H153.491C154.679 92.9077 155.754 93.3282 156.517 94.0952C157.283 94.8622 157.702 95.936 157.702 97.1263C157.702 98.3166 157.283 99.3932 156.517 100.157C155.751 100.924 154.677 101.345 153.491 101.345ZM150.797 95.9473C150.018 95.9473 149.621 96.3451 149.621 97.1263C149.621 97.9075 150.018 98.3052 150.797 98.3052H153.491C154.271 98.3052 154.668 97.9075 154.668 97.1263C154.668 96.3451 154.271 95.9473 153.491 95.9473H150.797Z" fill="#F2F2F2"/>
<path d="M145.41 109.441C144.222 109.441 143.147 109.021 142.384 108.254C141.618 107.487 141.199 106.413 141.199 105.222V102.524C141.199 101.333 141.618 100.257 142.384 99.4926C143.15 98.7256 144.222 98.3052 145.41 98.3052C146.598 98.3052 147.673 98.7256 148.435 99.4926C149.201 100.26 149.621 101.333 149.621 102.524V105.222C149.621 106.413 149.201 107.489 148.435 108.254C147.67 109.021 146.595 109.441 145.41 109.441ZM145.41 101.345C144.63 101.345 144.233 101.743 144.233 102.524V105.222C144.233 106.004 144.63 106.401 145.41 106.401C146.189 106.401 146.586 106.004 146.586 105.222V102.524C146.586 101.743 146.189 101.345 145.41 101.345Z" fill="#F2F2F2"/>
<path d="M140.022 101.345H137.328C136.14 101.345 135.065 100.924 134.302 100.157C133.536 99.3904 133.117 98.3166 133.117 97.1263C133.117 95.936 133.536 94.8593 134.302 94.0952C135.068 93.3282 136.14 92.9077 137.328 92.9077H140.022C141.21 92.9077 142.284 93.3282 143.047 94.0952C143.813 94.8622 144.232 95.936 144.232 97.1263C144.232 98.3166 143.813 99.3932 143.047 100.157C142.282 100.924 141.207 101.345 140.022 101.345ZM137.328 95.9473C136.548 95.9473 136.151 96.3451 136.151 97.1263C136.151 97.9075 136.548 98.3052 137.328 98.3052H140.022C140.801 98.3052 141.198 97.9075 141.198 97.1263C141.198 96.3451 140.801 95.9473 140.022 95.9473H137.328Z" fill="#F2F2F2"/>
<path d="M161.573 63.5624C159.25 63.5624 157.362 61.6704 157.362 59.3438C157.362 57.0172 159.25 55.1252 161.573 55.1252C163.895 55.1252 165.784 57.0172 165.784 59.3438C165.784 61.6704 163.892 63.5624 161.573 63.5624ZM161.573 58.1649C160.923 58.1649 160.396 58.6933 160.396 59.3438C160.396 59.9943 160.923 60.5227 161.573 60.5227C162.222 60.5227 162.75 59.9943 162.75 59.3438C162.75 58.6933 162.219 58.1649 161.573 58.1649Z" fill="#F2F2F2"/>
<path d="M134.634 85.1524C132.311 85.1524 130.423 83.2605 130.423 80.9339C130.423 78.6073 132.311 76.7153 134.634 76.7153C136.956 76.7153 138.845 78.6073 138.845 80.9339C138.845 83.2605 136.953 85.1524 134.634 85.1524ZM134.634 79.755C133.984 79.755 133.457 80.2833 133.457 80.9339C133.457 81.5844 133.984 82.1128 134.634 82.1128C135.283 82.1128 135.811 81.5844 135.811 80.9339C135.811 80.2833 135.28 79.755 134.634 79.755Z" fill="#F2F2F2"/>
<path d="M153.491 79.755C151.169 79.755 149.28 77.863 149.28 75.5364C149.28 73.2098 151.169 71.3179 153.491 71.3179C155.814 71.3179 157.702 73.2098 157.702 75.5364C157.702 77.863 155.811 79.755 153.491 79.755ZM153.491 74.3575C152.842 74.3575 152.314 74.8859 152.314 75.5364C152.314 76.187 152.842 76.7154 153.491 76.7154C154.141 76.7154 154.668 76.187 154.668 75.5364C154.668 74.8859 154.138 74.3575 153.491 74.3575Z" fill="#F2F2F2"/>
<path d="M137.328 63.5624C135.005 63.5624 133.117 61.6704 133.117 59.3438C133.117 57.0172 135.005 55.1252 137.328 55.1252C139.65 55.1252 141.539 57.0172 141.539 59.3438C141.539 61.6704 139.647 63.5624 137.328 63.5624ZM137.328 58.1649C136.678 58.1649 136.151 58.6933 136.151 59.3438C136.151 59.9943 136.678 60.5227 137.328 60.5227C137.977 60.5227 138.504 59.9943 138.504 59.3438C138.504 58.6933 137.974 58.1649 137.328 58.1649Z" fill="#F2F2F2"/>
<path d="M61.8965 41.9725C60.7084 41.9725 59.6336 41.5521 58.8709 40.7851C58.1052 40.0181 57.6855 38.9443 57.6855 37.754V35.0552C57.6855 33.8649 58.1052 32.7883 58.8709 32.0241C59.6365 31.2571 60.7084 30.8367 61.8965 30.8367C63.0846 30.8367 64.1593 31.2571 64.9221 32.0241C65.6878 32.7911 66.1074 33.8649 66.1074 35.0552V37.754C66.1074 38.9443 65.6878 40.0209 64.9221 40.7851C64.1593 41.5492 63.0846 41.9725 61.8965 41.9725ZM61.8965 33.8763C61.1167 33.8763 60.7197 34.274 60.7197 35.0552V37.754C60.7197 38.5352 61.1167 38.9329 61.8965 38.9329C62.6763 38.9329 63.0733 38.5352 63.0733 37.754V35.0552C63.0733 34.2712 62.6791 33.8763 61.8965 33.8763Z" fill="#F2F2F2"/>
<path d="M56.5088 47.37H53.8149C52.6268 47.37 51.5521 46.9495 50.7893 46.1825C50.0237 45.4155 49.604 44.3417 49.604 43.1514C49.604 41.9611 50.0237 40.8845 50.7893 40.1203C51.5549 39.3533 52.6268 38.9329 53.8149 38.9329H56.5088C57.697 38.9329 58.7717 39.3533 59.5345 40.1203C60.3001 40.8873 60.7198 41.9611 60.7198 43.1514C60.7198 44.3417 60.3001 45.4184 59.5345 46.1825C58.7717 46.9467 57.697 47.37 56.5088 47.37ZM53.8149 41.9725C53.0351 41.9725 52.6382 42.3702 52.6382 43.1514C52.6382 43.9326 53.0351 44.3303 53.8149 44.3303H56.5088C57.2886 44.3303 57.6856 43.9326 57.6856 43.1514C57.6856 42.3702 57.2886 41.9725 56.5088 41.9725H53.8149Z" fill="#F2F2F2"/>
<path d="M61.8965 55.4662C60.7084 55.4662 59.6336 55.0457 58.8709 54.2787C58.1052 53.5117 57.6855 52.4379 57.6855 51.2476V48.5489C57.6855 47.3586 58.1052 46.2819 58.8709 45.5178C59.6365 44.7508 60.7084 44.3303 61.8965 44.3303C63.0846 44.3303 64.1593 44.7508 64.9221 45.5178C65.6878 46.2848 66.1074 47.3586 66.1074 48.5489V51.2476C66.1074 52.4379 65.6878 53.5146 64.9221 54.2787C64.1593 55.0429 63.0846 55.4662 61.8965 55.4662ZM61.8965 47.37C61.1167 47.37 60.7197 47.7677 60.7197 48.5489V51.2476C60.7197 52.0288 61.1167 52.4265 61.8965 52.4265C62.6763 52.4265 63.0733 52.0288 63.0733 51.2476V48.5489C63.0733 47.7648 62.6791 47.37 61.8965 47.37Z" fill="#F2F2F2"/>
<path d="M69.9781 47.37H67.2842C66.096 47.37 65.0213 46.9495 64.2585 46.1825C63.4929 45.4155 63.0732 44.3417 63.0732 43.1514C63.0732 41.9611 63.4929 40.8845 64.2585 40.1203C65.0242 39.3533 66.096 38.9329 67.2842 38.9329H69.9781C71.1662 38.9329 72.2409 39.3533 73.0037 40.1203C73.7693 40.8873 74.189 41.9611 74.189 43.1514C74.189 44.3417 73.7693 45.4184 73.0037 46.1825C72.2409 46.9467 71.1662 47.37 69.9781 47.37ZM67.2842 41.9725C66.5044 41.9725 66.1074 42.3702 66.1074 43.1514C66.1074 43.9326 66.5044 44.3303 67.2842 44.3303H69.9781C70.7579 44.3303 71.1549 43.9326 71.1549 43.1514C71.1549 42.3702 70.7579 41.9725 69.9781 41.9725H67.2842Z" fill="#F2F2F2"/>
<path d="M64.5903 95.9474C63.4022 95.9474 62.3275 95.5269 61.5647 94.7599C60.7991 93.9929 60.3794 92.9191 60.3794 91.7288V89.0301C60.3794 87.8398 60.7991 86.7631 61.5647 85.999C62.3303 85.232 63.4022 84.8115 64.5903 84.8115C65.7785 84.8115 66.8532 85.232 67.616 85.999C68.3816 86.766 68.8013 87.8398 68.8013 89.0301V91.7288C68.8013 92.9191 68.3816 93.9958 67.616 94.7599C66.8532 95.5269 65.7785 95.9474 64.5903 95.9474ZM64.5903 87.8512C63.8105 87.8512 63.4135 88.2489 63.4135 89.0301V91.7288C63.4135 92.51 63.8105 92.9077 64.5903 92.9077C65.3701 92.9077 65.7671 92.51 65.7671 91.7288V89.0301C65.7671 88.2489 65.373 87.8512 64.5903 87.8512Z" fill="#F2F2F2"/>
<path d="M59.2027 101.345H56.5088C55.3207 101.345 54.2459 100.924 53.4832 100.157C52.7175 99.3904 52.2979 98.3166 52.2979 97.1263C52.2979 95.936 52.7175 94.8593 53.4832 94.0952C54.2488 93.3282 55.3207 92.9077 56.5088 92.9077H59.2027C60.3908 92.9077 61.4655 93.3282 62.2283 94.0952C62.9939 94.8622 63.4136 95.936 63.4136 97.1263C63.4136 98.3166 62.9939 99.3932 62.2283 100.157C61.4655 100.924 60.3908 101.345 59.2027 101.345ZM56.5088 95.9473C55.729 95.9473 55.332 96.3451 55.332 97.1263C55.332 97.9075 55.729 98.3052 56.5088 98.3052H59.2027C59.9825 98.3052 60.3795 97.9075 60.3795 97.1263C60.3795 96.3451 59.9825 95.9473 59.2027 95.9473H56.5088Z" fill="#F2F2F2"/>
<path d="M64.5903 109.441C63.4022 109.441 62.3275 109.021 61.5647 108.254C60.7991 107.487 60.3794 106.413 60.3794 105.222V102.524C60.3794 101.333 60.7991 100.257 61.5647 99.4926C62.3303 98.7256 63.4022 98.3052 64.5903 98.3052C65.7785 98.3052 66.8532 98.7256 67.616 99.4926C68.3788 100.26 68.8013 101.333 68.8013 102.524V105.222C68.8013 106.413 68.3816 107.489 67.616 108.254C66.8504 109.018 65.7785 109.441 64.5903 109.441ZM64.5903 101.345C63.8105 101.345 63.4135 101.743 63.4135 102.524V105.222C63.4135 106.004 63.8105 106.401 64.5903 106.401C65.3701 106.401 65.7671 106.004 65.7671 105.222V102.524C65.7671 101.743 65.373 101.345 64.5903 101.345Z" fill="#F2F2F2"/>
<path d="M72.6719 101.345H69.978C68.7899 101.345 67.7152 100.924 66.9524 100.157C66.1868 99.3904 65.7671 98.3166 65.7671 97.1263C65.7671 95.936 66.1868 94.8593 66.9524 94.0952C67.718 93.3282 68.7899 92.9077 69.978 92.9077H72.6719C73.86 92.9077 74.9348 93.3282 75.6975 94.0952C76.4632 94.8622 76.8829 95.936 76.8829 97.1263C76.8829 98.3166 76.4632 99.3932 75.6975 100.157C74.9319 100.922 73.86 101.345 72.6719 101.345ZM69.978 95.9473C69.1982 95.9473 68.8012 96.3451 68.8012 97.1263C68.8012 97.9075 69.1982 98.3052 69.978 98.3052H72.6719C73.4517 98.3052 73.8487 97.9075 73.8487 97.1263C73.8487 96.3451 73.4517 95.9473 72.6719 95.9473H69.978Z" fill="#F2F2F2"/>
<path d="M48.4273 63.5624C46.1049 63.5624 44.2163 61.6704 44.2163 59.3438C44.2163 57.0172 46.1049 55.1252 48.4273 55.1252C50.7497 55.1252 52.6382 57.0172 52.6382 59.3438C52.6382 61.6704 50.7497 63.5624 48.4273 63.5624ZM48.4273 58.1649C47.7779 58.1649 47.2505 58.6933 47.2505 59.3438C47.2505 59.9943 47.7779 60.5227 48.4273 60.5227C49.0766 60.5227 49.6041 59.9943 49.6041 59.3438C49.6041 58.6933 49.0766 58.1649 48.4273 58.1649Z" fill="#F2F2F2"/>
<path d="M75.3657 85.1524C73.0433 85.1524 71.1548 83.2605 71.1548 80.9339C71.1548 78.6073 73.0433 76.7153 75.3657 76.7153C77.6881 76.7153 79.5767 78.6073 79.5767 80.9339C79.5767 83.2605 77.6881 85.1524 75.3657 85.1524ZM75.3657 79.755C74.7164 79.755 74.1889 80.2833 74.1889 80.9339C74.1889 81.5844 74.7164 82.1128 75.3657 82.1128C76.0151 82.1128 76.5425 81.5844 76.5425 80.9339C76.5425 80.2833 76.0151 79.755 75.3657 79.755Z" fill="#F2F2F2"/>
<path d="M56.5088 79.755C54.1864 79.755 52.2979 77.863 52.2979 75.5364C52.2979 73.2098 54.1864 71.3179 56.5088 71.3179C58.8312 71.3179 60.7197 73.2098 60.7197 75.5364C60.7197 77.863 58.8312 79.755 56.5088 79.755ZM56.5088 74.3575C55.8594 74.3575 55.332 74.8859 55.332 75.5364C55.332 76.187 55.8594 76.7154 56.5088 76.7154C57.1582 76.7154 57.6856 76.187 57.6856 75.5364C57.6856 74.8859 57.1582 74.3575 56.5088 74.3575Z" fill="#F2F2F2"/>
<path d="M72.6719 63.5624C70.3495 63.5624 68.4609 61.6704 68.4609 59.3438C68.4609 57.0172 70.3495 55.1252 72.6719 55.1252C74.9943 55.1252 76.8828 57.0172 76.8828 59.3438C76.8828 61.6704 74.9943 63.5624 72.6719 63.5624ZM72.6719 58.1649C72.0225 58.1649 71.4951 58.6933 71.4951 59.3438C71.4951 59.9943 72.0225 60.5227 72.6719 60.5227C73.3212 60.5227 73.8487 59.9943 73.8487 59.3438C73.8487 58.6933 73.3212 58.1649 72.6719 58.1649Z" fill="#F2F2F2"/>
<path d="M132.916 168.813H122.044L121.587 168.237L77.0845 111.799H87.9564L132.916 168.813ZM123.515 165.774H126.652L86.4847 114.838H83.3484L123.515 165.774Z" fill="#F2F2F2"/>
<path d="M119.458 168.813H72.9417C70.3216 168.813 67.8942 167.827 66.1106 166.041C64.327 164.254 63.343 161.822 63.343 159.197V124.892L54.0194 132.534C53.2906 133.232 52.3662 133.607 51.3737 133.607C51.2405 133.607 51.1072 133.602 50.9711 133.588C49.9474 133.485 48.9521 132.994 48.1638 132.204C47.3301 131.369 46.9359 130.264 47.0522 129.088C47.1543 128.062 47.6448 127.065 48.4332 126.275L48.4814 126.227L64.6644 112.716C65.2996 112.14 66.4764 111.796 67.2846 111.796H74.2121L119.458 168.813ZM66.3772 118.477V159.197C66.3772 162.947 69.1987 165.774 72.9417 165.774H113.171L72.7517 114.838H67.2874C67.1315 114.838 66.8082 114.932 66.6664 115.006L66.6409 115.026L50.54 128.468C50.2168 128.815 49.7971 129.539 50.3104 130.056C50.6393 130.386 51.3993 130.863 51.9352 130.326L51.9891 130.272L66.3772 118.477ZM83.4478 160.717H72.6723C71.4842 160.717 70.4095 160.297 69.6467 159.53C68.8811 158.762 68.4614 157.689 68.4614 156.498C68.4614 155.308 68.8811 154.231 69.6467 153.467C70.4123 152.7 71.4842 152.28 72.6723 152.28H83.4478C84.6359 152.28 85.7107 152.7 86.4734 153.467C87.2391 154.234 87.6588 155.308 87.6588 156.498C87.6588 157.689 87.2391 158.765 86.4734 159.53C85.7107 160.297 84.6359 160.717 83.4478 160.717ZM72.6723 155.319C71.8925 155.319 71.4955 155.717 71.4955 156.498C71.4955 157.28 71.8925 157.677 72.6723 157.677H83.4478C84.2276 157.677 84.6246 157.28 84.6246 156.498C84.6246 155.717 84.2276 155.319 83.4478 155.319H72.6723Z" fill="#F2F2F2"/>
<path d="M137.328 168.813H135.785L135.329 168.237L92.7657 114.262L90.8232 111.799H142.716C143.521 111.799 144.695 112.14 145.33 112.714L161.706 126.159C162.577 126.827 163.144 127.923 163.229 129.099C163.311 130.238 162.928 131.338 162.182 132.127C161.51 132.968 160.439 133.514 159.293 133.596C158.147 133.678 157.044 133.292 156.253 132.534L146.929 124.892V159.197C146.929 161.822 145.946 164.254 144.162 166.041C142.373 167.827 139.948 168.813 137.328 168.813ZM137.254 165.774H137.328C141.071 165.774 143.892 162.947 143.892 159.197V118.478L158.281 130.272L158.334 130.326C158.57 130.562 158.899 130.576 159.075 130.565C159.381 130.542 159.681 130.403 159.82 130.218L159.886 130.133L159.962 130.057C160.198 129.821 160.212 129.491 160.2 129.315C160.178 129.008 160.039 128.707 159.854 128.568L159.803 128.528L143.334 115.006C143.192 114.935 142.869 114.841 142.716 114.841H97.0872L137.254 165.774Z" fill="#F2F2F2"/>
</svg>
