<svg width="160" height="160" viewBox="0 0 160 160" fill="none" xmlns="http://www.w3.org/2000/svg">
<path d="M79.5467 137.28H11.7334V121.227C11.7334 119.333 13.2801 117.76 15.2001 117.76H18.5067V109.787C18.5067 107.893 20.0534 106.32 21.9734 106.32H69.3334C71.2267 106.32 72.8001 107.867 72.8001 109.787V117.76H76.1067C78.0001 117.76 79.5734 119.307 79.5734 121.227V137.28H79.5467ZM15.7867 133.227H75.4934V121.813H68.7201V110.4H22.5601V121.813H15.7867V133.227Z" fill="#F2F2F3"/>
<path d="M63.3065 110.4C62.1865 110.4 61.2798 109.493 61.2798 108.373V100.827L68.0265 94.0801V89.2001L55.6265 76.8001V68.3201C55.6265 67.2001 56.5331 66.2935 57.6531 66.2935C58.7731 66.2935 59.6798 67.2001 59.6798 68.3201V75.1201L72.0798 87.5201V95.7601L65.3331 102.507V108.373C65.3331 109.493 64.4265 110.4 63.3065 110.4Z" fill="#F2F2F3"/>
<path d="M27.1466 110.4C26.0266 110.4 25.1199 109.493 25.1199 108.373V91.4934L19.9199 86.2934V61.0934C19.9199 42.8267 34.7733 27.9734 53.0399 27.9734H70.3466V38.7467L64.2666 44.8267L79.5732 60.1334V69.8401L71.0399 78.3734L63.0399 70.3734H51.3599C45.0133 70.3734 39.8399 65.2001 39.8399 58.8534C39.8399 57.7334 40.7466 56.8267 41.8666 56.8267C42.9866 56.8267 43.8933 57.7334 43.8933 58.8534C43.8933 62.9601 47.2266 66.3201 51.3599 66.3201H64.7199L71.0399 72.6401L75.5199 68.1601V61.8134L58.5333 44.8267L66.2933 37.0667V32.0267H53.0399C37.0133 32.0267 23.9733 45.0667 23.9733 61.0934V84.6134L29.1733 89.8134V108.373C29.1733 109.493 28.2666 110.4 27.1466 110.4Z" fill="#F2F2F3"/>
<path d="M30.1331 80.1868C29.0131 80.1868 28.1064 79.2802 28.1064 78.1602V63.2002C28.1064 50.7468 36.1064 39.9735 47.9998 36.3468C49.0664 36.0268 50.2131 36.6402 50.5331 37.7068C50.8531 38.7735 50.2398 39.9202 49.1731 40.2402C39.1464 43.2802 32.1598 52.7202 32.1598 63.2002V78.1602C32.1598 79.2802 31.2531 80.1868 30.1331 80.1868Z" fill="#F2F2F3"/>
<path d="M70.7732 121.84H49.7332C48.6132 121.84 47.7065 120.933 47.7065 119.813C47.7065 118.693 48.6132 117.787 49.7332 117.787H70.7732C71.8932 117.787 72.7999 118.693 72.7999 119.813C72.7999 120.933 71.8932 121.84 70.7732 121.84Z" fill="#F2F2F3"/>
<path d="M43.2802 121.84H38.5335C37.4135 121.84 36.5068 120.933 36.5068 119.813C36.5068 118.693 37.4135 117.787 38.5335 117.787H43.2802C44.4002 117.787 45.3068 118.693 45.3068 119.813C45.3068 120.933 44.4002 121.84 43.2802 121.84Z" fill="#F2F2F3"/>
<path d="M86.5335 96.0533L75.2002 84.6933L76.6402 83.2533C78.5335 81.36 78.5335 78.32 76.6402 76.4266L75.2002 74.9866L112.64 37.5466L114.08 38.9866C115.974 40.88 119.014 40.88 120.907 38.9866L122.347 37.5466L133.68 48.88L132.24 50.32C131.334 51.2266 130.827 52.4533 130.827 53.7333C130.827 55.0133 131.334 56.24 132.24 57.1466L133.68 58.5866L96.2135 96.0533L94.7735 94.6133C92.9602 92.8 89.7869 92.8 87.9469 94.6133L86.5335 96.0533ZM91.3869 89.1466C93.0669 89.1466 94.6669 89.6 96.0802 90.48L128.107 58.4533C127.227 57.0666 126.774 55.44 126.774 53.76C126.774 52.08 127.227 50.48 128.107 49.0666L122.16 43.12C119.387 44.8533 115.574 44.8533 112.8 43.12L80.7735 75.1733C81.6535 76.56 82.1069 78.1866 82.1069 79.8666C82.1069 81.5466 81.6535 83.1466 80.7735 84.56L86.7202 90.5066C88.0802 89.6 89.7069 89.1466 91.3869 89.1466Z" fill="#F2F2F3"/>
<path d="M104.427 75.7332C102.133 75.7332 99.8402 74.8532 98.1068 73.1199C94.6135 69.6265 94.6135 63.9732 98.1068 60.4799C101.6 56.9865 107.253 56.9865 110.747 60.4799C114.24 63.9732 114.24 69.6265 110.747 73.1199C109.013 74.8799 106.72 75.7332 104.427 75.7332ZM104.427 61.9199C103.173 61.9199 101.92 62.3999 100.987 63.3599C99.0935 65.2532 99.0935 68.3732 100.987 70.2665C102.88 72.1599 106 72.1599 107.893 70.2665C109.787 68.3732 109.787 65.2532 107.893 63.3599C106.933 62.3999 105.68 61.9199 104.427 61.9199Z" fill="#F2F2F3"/>
<path d="M90.427 106.453C88.4004 106.453 86.4004 105.68 84.8537 104.16L75.307 94.6133C74.507 93.8133 74.507 92.5333 75.307 91.7333C76.107 90.9333 77.387 90.9333 78.187 91.7333L87.7337 101.28C89.227 102.773 91.627 102.773 93.1204 101.28L140.667 53.7333L117.494 30.5599L84.907 63.1466C84.107 63.9466 82.827 63.9466 82.027 63.1466C81.227 62.3466 81.227 61.0666 82.027 60.2666L117.467 24.8533L146.4 53.7599L96.0004 104.16C94.4537 105.707 92.427 106.453 90.427 106.453Z" fill="#F2F2F3"/>
<path d="M80.1601 57.0666C79.6534 57.0666 79.1201 56.8799 78.7201 56.4799C77.9201 55.6799 77.9201 54.3999 78.7201 53.5999L117.467 14.8533L146.4 43.7599L139.973 50.1866C139.173 50.9866 137.893 50.9866 137.093 50.1866C136.293 49.3866 136.293 48.1066 137.093 47.3066L140.667 43.7333L117.493 20.5599L81.6001 56.4799C81.2001 56.8799 80.6668 57.0666 80.1601 57.0666Z" fill="#F2F2F3"/>
<path d="M75.6801 51.5733C75.1735 51.5733 74.6401 51.3866 74.2401 50.9866C73.4401 50.1866 73.4401 48.9066 74.2401 48.1066L117.467 4.85327L146.4 33.7866L139.973 40.2133C139.173 41.0133 137.893 41.0133 137.093 40.2133C136.293 39.4133 136.293 38.1333 137.093 37.3333L140.667 33.7599L117.493 10.5866L77.0935 50.9599C76.6935 51.3599 76.1868 51.5733 75.6801 51.5733Z" fill="#F2F2F3"/>
<path d="M99.7598 137.28H79.8398L105.2 111.92L113.36 120.08L141.973 91.4667C142.773 90.6667 144.053 90.6667 144.853 91.4667C145.653 92.2667 145.653 93.5467 144.853 94.3467L113.387 125.813L105.227 117.653L89.6532 133.227H99.7865C100.907 133.227 101.813 134.133 101.813 135.253C101.787 136.373 100.88 137.28 99.7598 137.28Z" fill="#F2F2F3"/>
<path d="M143.52 108.827C142.4 108.827 141.493 107.92 141.493 106.8V94.7733H129.467C128.347 94.7733 127.44 93.8666 127.44 92.7466C127.44 91.6266 128.347 90.72 129.467 90.72H145.547V106.8C145.547 107.92 144.64 108.827 143.52 108.827Z" fill="#F2F2F3"/>
<path d="M108.56 137.28H104.427C103.307 137.28 102.4 136.373 102.4 135.253C102.4 134.133 103.307 133.227 104.427 133.227H108.56C109.68 133.227 110.587 134.133 110.587 135.253C110.587 136.373 109.68 137.28 108.56 137.28Z" fill="#F2F2F3"/>
<path d="M127.147 137.28H114.08C112.96 137.28 112.053 136.373 112.053 135.253C112.053 134.133 112.96 133.227 114.08 133.227H127.147C128.267 133.227 129.173 134.133 129.173 135.253C129.173 136.373 128.24 137.28 127.147 137.28Z" fill="#F2F2F3"/>
</svg>
