<svg width="179" height="179" viewBox="0 0 179 179" fill="none" xmlns="http://www.w3.org/2000/svg">
<path d="M149.09 150.302C149.107 150.302 149.133 150.302 149.158 150.302C149.397 150.311 149.192 150.293 149.09 150.302Z" fill="#F2F2F2"/>
<path d="M153.895 138.787C152.606 137.37 150.558 136.918 148.748 136.883C148.501 136.875 148.287 136.918 148.091 136.977C147.886 137.011 147.69 137.046 147.485 137.071C147.178 137.122 146.87 137.165 146.571 137.208C146.409 137.233 146.247 137.25 146.085 137.276C145.965 137.293 145.854 137.31 145.735 137.327C142.764 137.728 139.777 138.053 136.789 138.335C131.838 138.804 126.879 139.171 121.92 139.453C122.952 135.979 123.439 132.342 123.439 128.706C123.439 126.333 123.439 123.96 123.439 121.587C123.439 121.459 123.439 121.331 123.439 121.194C124.199 121.194 124.958 121.194 125.718 121.194C128.74 121.177 131.779 120.255 134.28 118.48C136.892 116.619 138.863 114.058 140.05 111.011C140.835 108.996 141.1 106.854 141.1 104.694C141.1 101.007 141.1 97.319 141.1 93.6315C141.1 91.8645 141.057 90.1232 140.639 88.3989C139.913 85.3942 138.257 82.5603 135.995 80.5287C133.375 78.1642 130.106 76.7899 126.623 76.6107C125.564 76.5594 124.506 76.5594 123.439 76.5765C123.439 74.6644 123.439 72.7524 123.439 70.8403C123.439 69.5599 123.507 68.271 123.063 67.0503C122.159 64.5749 119.939 62.9957 117.395 62.936C114.655 62.8762 111.898 62.936 109.158 62.936C103.157 62.936 97.148 62.936 91.1472 62.936C84.7281 62.936 78.3176 62.936 71.8985 62.936C67.9207 62.936 63.943 62.936 59.9652 62.936C59.6835 62.936 59.4103 62.9274 59.1287 62.936C57.0544 62.9787 55.1423 64.003 53.9985 65.8211C53.0596 67.3235 53.051 68.9283 53.051 70.6099C53.051 75.0486 53.051 79.4788 53.051 83.9175C53.051 90.6695 53.051 97.4129 53.051 104.165C53.051 110.14 53.051 116.107 53.051 122.082C53.051 125.513 52.8718 129.039 53.2473 132.453C53.512 134.835 53.9814 137.174 54.6729 139.453C46.7429 139 38.8044 138.403 30.9257 137.344C30.7464 137.319 30.5672 137.293 30.3879 137.268C30.294 137.25 30.2001 137.242 30.1062 137.225C29.7819 137.182 29.466 137.131 29.1417 137.08C28.8771 137.037 28.621 136.994 28.3564 136.952C26.5467 136.67 24.353 137.25 22.9787 138.531C22.0568 139.393 21.758 140.477 21.758 141.706C21.758 142.773 21.758 143.832 21.758 144.899C21.758 145.897 21.7324 146.845 22.236 147.758C23.1921 149.491 25.4712 150.268 27.2894 150.319C27.7076 150.328 27.554 150.302 27.4345 150.285C27.443 150.285 27.4515 150.285 27.4686 150.285C27.9466 150.336 28.4161 150.439 28.8941 150.507C31.4464 150.874 34.0072 151.19 36.5765 151.463C47.2465 152.598 57.9678 153.179 68.6804 153.503C84.5403 153.981 100.426 153.904 116.269 153.17C125.522 152.743 134.775 152.112 143.977 150.993C145.684 150.789 147.382 150.507 149.081 150.293H149.09C148.842 150.285 149.559 150.293 149.568 150.293C149.909 150.259 150.259 150.217 150.6 150.148C150.993 150.072 151.369 149.969 151.744 149.824C152.598 149.491 153.409 149.03 154.006 148.305C154.809 147.323 154.886 146.247 154.886 145.035C154.886 144.002 154.886 142.961 154.886 141.928C154.877 140.759 154.715 139.692 153.895 138.787ZM151.053 145.624C151.061 145.607 151.07 145.582 151.078 145.573C151.07 145.599 151.061 145.607 151.053 145.624ZM150.908 141.45C150.899 141.442 150.882 141.425 150.865 141.416C150.874 141.416 150.891 141.425 150.908 141.45ZM150.95 141.245C150.942 141.254 150.942 141.271 150.933 141.288C150.746 140.665 150.976 141.203 150.95 141.245ZM56.9776 125.172C56.9776 119.948 56.9776 114.724 56.9776 109.5C56.9776 102.808 56.9776 96.1069 56.9776 89.4147C56.9776 84.0797 56.9776 78.7447 56.9776 73.4097C56.9776 72.1378 56.9776 70.8574 56.9776 69.5855C56.9776 69.1673 56.9861 68.8258 57.0459 68.6295C57.3276 67.5966 58.0958 67.0077 59.1543 66.9906C62.048 66.9394 64.9502 66.9906 67.8525 66.9906C73.7935 66.9906 79.726 66.9906 85.6671 66.9906C91.9581 66.9906 98.2492 66.9906 104.532 66.9906C108.484 66.9906 112.445 66.9906 116.397 66.9906C116.704 66.9906 117.02 66.982 117.327 66.9906C117.353 66.9906 117.37 66.9906 117.395 66.9906H117.404C117.447 66.9906 117.583 66.9906 117.617 66.9991C117.669 66.9991 117.703 66.9991 117.737 67.0077C117.737 67.0162 117.762 67.0247 117.822 67.0418C117.959 67.0759 118.087 67.1101 118.223 67.1613C118.232 67.1613 118.24 67.1698 118.24 67.1698C118.258 67.1784 118.275 67.1954 118.309 67.2125C118.369 67.2467 118.701 67.4771 118.71 67.4686C118.829 67.5881 119.068 67.8527 119.051 67.8186C119.12 67.921 119.188 68.032 119.248 68.1344C119.282 68.1942 119.307 68.2539 119.342 68.3137V68.3222C119.504 68.7831 119.487 68.7405 119.504 69.1929C119.504 69.3038 119.504 69.4063 119.504 69.5172C119.504 70.0635 119.504 70.6184 119.504 71.1647C119.504 72.7524 119.504 74.3486 119.504 75.9363C119.504 76.8326 119.504 77.7289 119.504 78.6252C119.504 79.7263 120.4 80.6567 121.467 80.6567C122.918 80.6567 124.369 80.6567 125.82 80.6567C127.007 80.6567 127.613 80.7165 128.731 81.0152C129.039 81.1006 129.337 81.186 129.636 81.2884C129.798 81.3481 129.96 81.4079 130.123 81.4676C130.165 81.4847 130.336 81.5615 130.396 81.5786C131.002 81.8603 131.582 82.1932 132.137 82.5603C132.743 82.97 132.837 83.0383 133.358 83.5334C133.861 84.0028 134.339 84.515 134.766 85.0613C134.775 85.0698 134.843 85.1637 134.877 85.2064C134.945 85.3003 135.014 85.4027 135.082 85.4966C135.278 85.7869 135.458 86.0856 135.637 86.3929C135.79 86.6661 135.936 86.9478 136.072 87.238C136.294 87.6904 136.251 87.605 136.405 88.0318C136.892 89.3976 137.114 90.5243 137.148 91.7877C137.156 92.1718 137.156 92.5559 137.156 92.94C137.156 96.4825 137.156 100.025 137.156 103.567C137.156 104.08 137.156 104.592 137.156 105.095C137.156 106.017 137.114 106.683 136.977 107.417C136.704 108.843 136.345 109.85 135.731 110.994C135.056 112.248 134.51 112.957 133.503 113.939C131.557 115.834 128.808 117.029 126.153 117.114C124.6 117.165 123.029 117.123 121.476 117.123C120.417 117.123 119.512 118.053 119.512 119.154C119.512 121.109 119.512 123.064 119.512 125.027C119.512 127.494 119.581 129.978 119.342 132.436C119.094 134.894 118.531 137.336 117.72 139.666C112.188 139.931 106.657 140.101 101.117 140.204C87.0414 140.469 72.9399 140.34 58.8726 139.649C57.6519 136.115 56.9776 132.453 56.969 128.689C56.9776 127.528 56.9776 126.35 56.9776 125.172ZM25.6846 141.339C25.6846 141.331 25.6846 141.322 25.6931 141.314C25.6931 141.322 25.6846 141.331 25.6846 141.339ZM25.5053 145.573C25.5395 145.556 25.5822 145.616 25.6078 145.684C25.548 145.633 25.4883 145.573 25.5053 145.573ZM25.6675 145.855C25.6248 145.735 25.6504 145.769 25.6675 145.855V145.855ZM25.6846 145.906C25.6846 145.906 25.6931 145.914 25.6931 145.923C25.6931 145.914 25.6931 145.906 25.6846 145.906ZM150.259 146.068C150.105 146.119 149.952 146.162 149.798 146.188C149.312 146.29 148.765 146.273 148.236 146.358C147.988 146.392 147.741 146.435 147.493 146.478C147.237 146.521 146.973 146.555 146.717 146.589C146.734 146.589 146.751 146.589 146.768 146.58C146.708 146.589 146.648 146.597 146.589 146.606C146.58 146.606 146.58 146.606 146.571 146.606C146.443 146.623 146.401 146.632 146.401 146.632C146.179 146.666 145.957 146.691 145.726 146.725C137.916 147.75 130.046 148.364 122.184 148.817C107.144 149.687 92.0606 149.901 76.9945 149.645C65.0441 149.448 53.0766 148.945 41.1689 147.861C38.0277 147.579 34.8864 147.246 31.7537 146.845C31.2842 146.785 30.8147 146.717 30.3453 146.657C30.2855 146.649 30.2257 146.64 30.1575 146.632C29.9782 146.606 29.7989 146.58 29.6197 146.555C29.227 146.495 28.8258 146.435 28.4332 146.367C27.8783 146.282 27.2979 146.299 26.7943 146.188C26.4358 146.111 26.1797 146.034 25.9919 145.932C25.9065 145.889 25.8126 145.838 25.7273 145.778C25.7102 145.769 25.7017 145.752 25.6846 145.744C25.6846 145.727 25.6846 145.71 25.6846 145.701C25.7187 144.719 25.6846 143.738 25.6846 142.756C25.6846 142.346 25.6931 141.937 25.6846 141.536C25.6846 141.527 25.6846 141.51 25.6846 141.501C25.7614 141.459 25.9748 141.314 25.9919 141.305C26.1882 141.203 26.4272 141.134 26.7943 141.049C26.9052 141.023 27.4942 140.955 27.5113 140.912C27.5454 140.921 27.5796 140.929 27.6052 140.929C28.143 141.006 28.6722 141.092 29.21 141.168C36.0473 142.142 42.9359 142.748 49.8244 143.209C64.0454 144.173 78.3176 144.472 92.5727 144.387C105.599 144.31 118.642 143.891 131.633 142.85C137.301 142.398 142.978 141.86 148.603 140.981C148.671 140.972 148.74 140.955 148.808 140.947C149.149 140.955 149.465 140.972 149.781 141.04C150.011 141.092 150.25 141.151 150.472 141.237C150.925 141.407 150.677 141.331 150.609 141.297C150.618 141.297 150.814 141.433 150.908 141.476C150.908 141.681 150.95 141.945 150.95 142.056C150.95 142.603 150.95 143.149 150.95 143.695C150.95 144.19 150.95 144.677 150.95 145.172C150.95 145.223 150.925 145.522 150.916 145.744C150.882 145.769 150.857 145.795 150.857 145.795C150.797 145.829 150.729 145.872 150.669 145.906C150.754 145.855 150.233 146.077 150.259 146.068ZM151.061 141.587C151.053 141.57 151.036 141.561 151.027 141.544C151.019 141.535 151.019 141.527 151.01 141.51C151.113 141.587 151.189 141.646 151.061 141.587Z" fill="#F2F2F2"/>
<path d="M146.469 146.623C146.512 146.614 146.554 146.614 146.588 146.606C146.631 146.597 146.674 146.597 146.716 146.589C146.58 146.606 146.409 146.632 146.409 146.632C146.426 146.623 146.443 146.623 146.469 146.623Z" fill="#F2F2F2"/>
<path d="M121.476 110.729C123.849 110.729 126.384 111.028 128.569 109.867C130.49 108.851 131.813 106.862 132.06 104.66C132.129 104.028 132.112 103.388 132.112 102.757C132.112 100.341 132.112 97.9252 132.112 95.5095C132.112 94.8608 132.129 94.2035 132.112 93.5547C132.078 91.6683 131.292 89.9184 129.858 88.7404C127.425 86.7345 124.395 87.0845 121.484 87.0845C120.887 87.0845 120.426 87.3149 120.11 87.6649C119.76 87.9893 119.521 88.4758 119.521 89.116C119.521 94.8351 119.521 100.546 119.521 106.265C119.521 107.084 119.521 107.895 119.521 108.715C119.513 109.79 120.409 110.729 121.476 110.729ZM124.045 91.1305C124.421 91.1305 124.788 91.122 125.163 91.1305C125.676 91.1391 126.128 91.1903 126.589 91.3781C126.538 91.361 127.007 91.6 126.956 91.5744C126.947 91.5659 127.28 91.7963 127.306 91.7963C127.408 91.8902 127.502 91.9841 127.605 92.078C127.639 92.1122 127.767 92.2658 127.792 92.3C127.861 92.4109 127.929 92.5219 127.989 92.6329C127.997 92.6585 128.074 92.8633 128.1 92.9145C128.117 92.9658 128.168 93.1962 128.177 93.2133C128.185 93.3157 128.185 93.4267 128.185 93.5291C128.194 94.0584 128.185 94.5961 128.185 95.1254C128.185 97.3362 128.185 99.547 128.185 101.758C128.185 102.458 128.194 103.158 128.185 103.858C128.185 103.909 128.185 103.952 128.185 104.003C128.185 104.08 128.185 104.139 128.177 104.233C128.177 104.276 128.177 104.31 128.177 104.344C128.168 104.353 128.16 104.378 128.151 104.438C127.997 105.095 127.775 105.471 127.238 105.949C126.888 106.265 126.111 106.598 125.701 106.649C125.274 106.7 124.83 106.666 124.404 106.666C124.079 106.666 123.763 106.666 123.439 106.666C123.439 101.63 123.439 96.585 123.439 91.5488C123.439 91.4122 123.439 91.2671 123.439 91.1305C123.644 91.1305 123.849 91.1305 124.045 91.1305Z" fill="#F2F2F2"/>
<path d="M116.158 112.419C116.158 109.986 116.166 107.554 116.166 105.121C116.166 102.509 112.239 102.5 112.239 105.121C112.239 107.554 112.231 109.986 112.231 112.419C112.231 115.031 116.149 115.031 116.158 112.419Z" fill="#F2F2F2"/>
<path d="M114.015 135.825C115.167 135.825 115.867 134.886 115.978 133.793C116.243 131.207 116.141 128.569 116.141 125.975C116.141 123.815 116.149 121.664 116.149 119.504C116.149 116.892 112.222 116.884 112.222 119.504C112.222 121.664 112.214 123.815 112.214 125.975C112.214 128.569 112.325 131.216 112.052 133.793C111.941 134.886 113.033 135.825 114.015 135.825Z" fill="#F2F2F2"/>
<path d="M65.2405 78.6509C65.2405 77.507 65.2405 76.3718 65.2405 75.2279C65.36 75.2279 65.4624 75.2279 65.471 75.2279C68.1939 75.2279 70.9084 75.2279 73.6314 75.2279C74.502 75.2279 75.3727 75.2279 76.2434 75.2279C78.77 75.2279 78.77 71.1648 76.2434 71.1648C73.8448 71.1648 71.4462 71.1648 69.039 71.1648C67.7757 71.1648 66.5123 71.1648 65.2576 71.1648C63.1577 71.1648 61.4249 72.4367 61.3225 74.7499C61.2627 76.0474 61.3225 77.3534 61.3225 78.6509C61.3139 81.2629 65.2405 81.2714 65.2405 78.6509ZM65.2405 74.8694C65.2405 74.8011 65.2405 74.7499 65.2319 74.7414C65.2832 74.7584 65.2746 74.8097 65.2405 74.8694ZM64.8905 75.2279C64.8308 75.2621 64.7881 75.2706 64.7795 75.2194C64.7881 75.2279 64.8308 75.2279 64.8905 75.2279Z" fill="#F2F2F2"/>
<path d="M83.7719 75.2279C85.8803 75.2279 87.9973 75.2279 90.1057 75.2279C92.6323 75.2279 92.6323 71.1648 90.1057 71.1648C87.9973 71.1648 85.8803 71.1648 83.7719 71.1648C81.2453 71.1648 81.2453 75.2279 83.7719 75.2279Z" fill="#F2F2F2"/>
<path d="M76.2094 43.3202C76.3375 43.8836 76.4484 44.447 76.5509 45.0104C76.5594 45.036 76.5594 45.0616 76.5594 45.0787C76.5765 45.2152 76.585 45.3433 76.5935 45.4799C76.6021 45.6847 76.6021 45.8811 76.5935 46.0859C76.585 46.3335 76.5509 46.5895 76.5253 46.8371C76.5253 46.8542 76.5253 46.8712 76.5167 46.8968C76.4996 47.0163 76.4826 47.1444 76.4655 47.2639C76.3801 47.8529 76.2777 48.4333 76.1753 49.0138C76.0558 49.6796 75.9277 50.3539 75.7912 51.0112C75.5692 52.0867 76.0985 53.2049 77.1655 53.5122C78.1471 53.7939 79.3592 53.1708 79.5811 52.0953C79.9311 50.3795 80.247 48.6552 80.4433 46.9139C80.7164 44.5494 79.9823 42.2276 79.4446 39.9571C79.308 39.3766 79.1714 38.7876 79.0604 38.1986C79.0434 38.0962 78.9751 37.6609 78.9666 37.6438C78.9409 37.3877 78.9153 37.1316 78.9153 36.8756C78.9153 36.6451 78.9324 36.4232 78.9495 36.2012C78.9495 36.1927 78.9495 36.1842 78.9495 36.1756C78.9666 36.039 78.9922 35.911 79.0178 35.7744C79.1373 35.1172 79.2824 34.4684 79.436 33.8197C79.9653 31.5918 80.6823 29.3127 80.4689 26.9909C80.2811 25.0105 79.9482 23.0387 79.5726 21.0925C79.3677 20.017 78.1215 19.4024 77.1569 19.6755C76.0728 19.9828 75.5778 21.0925 75.7826 22.1766C75.8851 22.6973 75.9704 23.2265 76.0643 23.7472C76.1411 24.2167 76.2265 24.6862 76.2948 25.1642C76.3375 25.4117 76.3716 25.6678 76.4057 25.9239C76.4228 26.0263 76.4314 26.1287 76.4484 26.2226C76.457 26.2739 76.4655 26.3336 76.4655 26.3934C76.5167 26.8202 76.5594 27.2384 76.5765 27.6652C76.585 27.8615 76.585 28.0579 76.5765 28.2542C76.5679 28.3652 76.5594 28.4761 76.5509 28.5956C76.5509 28.6127 76.5509 28.6298 76.5509 28.6469C76.5509 28.6554 76.5423 28.6725 76.5423 28.7066C76.3289 29.9102 76.0387 31.0967 75.7485 32.2917C75.4412 33.5807 75.1424 34.8781 75.0144 36.2012C74.9034 37.3365 75.0997 38.4889 75.3217 39.5986C75.5948 40.8533 75.9277 42.0825 76.2094 43.3202ZM76.5167 46.9651C76.5082 47.0249 76.5082 47.059 76.5167 46.9651V46.9651ZM78.9666 36.1756C78.9751 36.0817 79.0178 35.8598 78.9666 36.1756V36.1756ZM76.457 26.1714C76.457 26.1629 76.457 26.1629 76.457 26.1714V26.1714ZM76.5765 45.1299C76.585 45.2152 76.6021 45.2921 76.5765 45.1299V45.1299Z" fill="#F2F2F2"/>
<path d="M86.9133 43.3202C87.0413 43.8836 87.1523 44.447 87.2547 45.0104C87.2633 45.036 87.2633 45.0616 87.2633 45.0787C87.2803 45.2152 87.2889 45.3433 87.2974 45.4799C87.3059 45.6847 87.3059 45.8811 87.2974 46.0859C87.2889 46.3335 87.2547 46.5895 87.2291 46.8371C87.2291 46.8542 87.2291 46.8712 87.2206 46.8968C87.2035 47.0163 87.1864 47.1444 87.1694 47.2639C87.084 47.8529 86.9816 48.4333 86.8791 49.0138C86.7596 49.6796 86.6316 50.3539 86.495 51.0112C86.2731 52.0867 86.8023 53.2049 87.8693 53.5122C88.851 53.7939 90.0631 53.1708 90.285 52.0953C90.635 50.3795 90.9508 48.6552 91.1472 46.9139C91.4203 44.5494 90.6862 42.2276 90.1484 39.9571C90.0119 39.3766 89.8753 38.7876 89.7643 38.1986C89.7472 38.0962 89.679 37.6609 89.6704 37.6438C89.6448 37.3877 89.6192 37.1316 89.6192 36.8756C89.6192 36.6451 89.6363 36.4232 89.6534 36.2012C89.6534 36.1927 89.6534 36.1842 89.6534 36.1756C89.6704 36.039 89.696 35.911 89.7216 35.7744C89.8411 35.1172 89.9863 34.4684 90.1399 33.8197C90.6691 31.5918 91.3862 29.3127 91.1728 26.9909C90.985 25.0105 90.6521 23.0387 90.2765 21.0925C90.0716 20.017 88.8254 19.4024 87.8608 19.6755C86.7767 19.9828 86.2816 21.0925 86.4865 22.1766C86.5889 22.6973 86.6743 23.2265 86.7682 23.7472C86.845 24.2167 86.9304 24.6862 86.9987 25.1642C87.0413 25.4117 87.0755 25.6678 87.1096 25.9239C87.1267 26.0263 87.1352 26.1287 87.1523 26.2226C87.1608 26.2739 87.1694 26.3336 87.1779 26.3934C87.2291 26.8202 87.2718 27.2384 87.2889 27.6652C87.2974 27.8615 87.2974 28.0579 87.2889 28.2542C87.2803 28.3652 87.2718 28.4761 87.2633 28.5956C87.2633 28.6127 87.2633 28.6298 87.2633 28.6469C87.2633 28.6554 87.2547 28.6725 87.2547 28.7066C87.0413 29.9102 86.7511 31.0967 86.4609 32.2917C86.1536 33.5807 85.8548 34.8781 85.7268 36.2012C85.6158 37.3365 85.8121 38.4889 86.0341 39.5986C86.2987 40.8533 86.6231 42.0825 86.9133 43.3202ZM87.2206 46.9651C87.2035 47.059 87.212 47.0249 87.2206 46.9651V46.9651ZM89.6619 36.1756C89.6704 36.0817 89.7131 35.8598 89.6619 36.1756V36.1756ZM87.1523 26.1714C87.1523 26.1629 87.1523 26.1629 87.1523 26.1714V26.1714ZM87.2718 45.1299C87.2889 45.2152 87.3059 45.2921 87.2718 45.1299V45.1299Z" fill="#F2F2F2"/>
<path d="M97.3188 43.3202C97.4468 43.8836 97.5578 44.447 97.6602 45.0104C97.6688 45.036 97.6688 45.0616 97.6688 45.0787C97.6858 45.2152 97.6944 45.3433 97.7029 45.4799C97.7115 45.6847 97.7115 45.8811 97.7029 46.0859C97.6944 46.3335 97.6602 46.5895 97.6346 46.8371C97.6346 46.8542 97.6346 46.8712 97.6261 46.8968C97.609 47.0163 97.5919 47.1444 97.5749 47.2639C97.4895 47.8529 97.3871 48.4333 97.2847 49.0138C97.1651 49.6796 97.0371 50.3539 96.9005 51.0112C96.6786 52.0867 97.2078 53.2049 98.2748 53.5122C99.2565 53.7939 100.469 53.1708 100.691 52.0953C101.04 50.3795 101.356 48.6552 101.553 46.9139C101.826 44.5494 101.092 42.2276 100.554 39.9571C100.417 39.3766 100.281 38.7876 100.17 38.1986C100.153 38.0962 100.084 37.6609 100.076 37.6438C100.05 37.3877 100.025 37.1316 100.025 36.8756C100.025 36.6451 100.042 36.4232 100.059 36.2012C100.059 36.1927 100.059 36.1842 100.059 36.1756C100.076 36.039 100.102 35.911 100.127 35.7744C100.247 35.1172 100.392 34.4684 100.545 33.8197C101.075 31.5918 101.792 29.3127 101.578 26.9909C101.39 25.0105 101.058 23.0387 100.682 21.0925C100.477 20.017 99.2309 19.4024 98.2663 19.6755C97.1822 19.9828 96.6871 21.0925 96.892 22.1766C96.9944 22.6973 97.0798 23.2265 97.1737 23.7472C97.2505 24.2167 97.3359 24.6862 97.4042 25.1642C97.4468 25.4117 97.481 25.6678 97.5151 25.9239C97.5322 26.0263 97.5407 26.1287 97.5578 26.2226C97.5663 26.2739 97.5749 26.3336 97.5749 26.3934C97.6261 26.8202 97.6688 27.2384 97.6859 27.6652C97.6944 27.8615 97.6944 28.0579 97.6859 28.2542C97.6773 28.3652 97.6688 28.4761 97.6602 28.5956C97.6602 28.6127 97.6602 28.6298 97.6602 28.6469C97.6602 28.6554 97.6517 28.6725 97.6517 28.7066C97.4383 29.9102 97.1481 31.0967 96.8579 32.2917C96.5506 33.5807 96.2518 34.8781 96.1238 36.2012C96.0128 37.3365 96.2091 38.4889 96.4311 39.5986C96.7042 40.8533 97.0371 42.0825 97.3188 43.3202ZM97.6261 46.9651C97.609 47.059 97.6176 47.0249 97.6261 46.9651V46.9651ZM100.067 36.1756C100.084 36.0817 100.119 35.8598 100.067 36.1756V36.1756ZM97.5663 26.1714C97.5578 26.1629 97.5578 26.1629 97.5663 26.1714V26.1714ZM97.6773 45.1299C97.6944 45.2152 97.7115 45.2921 97.6773 45.1299V45.1299Z" fill="#F2F2F2"/>
</svg>
