<svg width="97" height="97" viewBox="0 0 97 97" fill="none" xmlns="http://www.w3.org/2000/svg">
<g clip-path="url(#clip0_206_718)">
<path d="M48.3484 96.6969C35.4277 96.6969 23.2838 91.6764 14.1521 82.5447C5.02051 73.3941 0 61.2691 0 48.3484C0 35.4277 5.02051 23.2838 14.1521 14.1521C23.2838 5.02051 35.4277 0 48.3484 0C61.2691 0 73.4131 5.02051 82.5447 14.1521C91.6764 23.2838 96.6969 35.4277 96.6969 48.3484C96.6969 61.2691 91.6764 73.4131 82.5447 82.5447C73.3941 91.6574 61.2691 96.6969 48.3484 96.6969ZM48.3484 5.68359C24.8184 5.68359 5.68359 24.8184 5.68359 48.3484C5.68359 71.8785 24.8184 91.0133 48.3484 91.0133C71.8785 91.0133 91.0133 71.8785 91.0133 48.3484C91.0133 24.8184 71.8785 5.68359 48.3484 5.68359Z" fill="#F2F2F2"/>
<path d="M52.0998 75.4401H44.1428C34.9164 75.4401 27.4141 67.9378 27.4141 58.7114V52.5542H68.8285V58.7114C68.8285 67.9378 61.3262 75.4401 52.0998 75.4401ZM33.0977 58.2567V58.7304C33.0977 64.8118 38.0424 69.7565 44.1238 69.7565H52.0808C58.1623 69.7565 63.107 64.8118 63.107 58.7304V58.2567H33.0977Z" fill="#F2F2F2"/>
<path d="M45.2227 40.6755H39.5391C39.5391 37.9664 37.3225 35.7498 34.6133 35.7498C31.9041 35.7498 29.6875 37.9664 29.6875 40.6755H24.0039C24.0039 34.8214 28.7592 30.0662 34.6133 30.0662C40.4674 30.0662 45.2227 34.8214 45.2227 40.6755Z" fill="#F2F2F2"/>
<path d="M72.7119 40.6755H67.0283C67.0283 37.9664 64.8117 35.7498 62.1025 35.7498C59.3934 35.7498 57.1768 37.9664 57.1768 40.6755H51.4932C51.4932 34.8214 56.2484 30.0662 62.1025 30.0662C67.9566 30.0662 72.7119 34.8214 72.7119 40.6755Z" fill="#F2F2F2"/>
<path d="M85.8413 89.8956L89.8577 85.8792L96.9622 92.9836L92.9647 97L85.8413 89.8956Z" fill="#F2F2F2"/>
<path d="M0.0756836 4.09209L4.09209 0.0756836L11.1966 7.18017L7.18017 11.1966L0.0756836 4.09209Z" fill="#F2F2F2"/>
<path d="M0.0566406 92.9646L7.16113 85.8601L11.1775 89.8765L4.07305 96.981L0.0566406 92.9646Z" fill="#F2F2F2"/>
<path d="M85.8604 7.19922L92.9648 0.0947266L96.9812 4.11113L89.8768 11.2156L85.8604 7.19922Z" fill="#F2F2F2"/>
<path d="M74.3223 43.6121H84.1738V49.2957H74.3223V43.6121Z" fill="#F2F2F2"/>
<path d="M12.6934 43.6121H22.5449V49.2957H12.6934V43.6121Z" fill="#F2F2F2"/>
</g>
<defs>
<clipPath id="clip0_206_718">
<rect width="97" height="97" fill="white"/>
</clipPath>
</defs>
</svg>
