<svg width="116" height="115" viewBox="0 0 116 115" fill="none" xmlns="http://www.w3.org/2000/svg">
<g clip-path="url(#clip0_206_740)">
<path d="M108.514 54.7599C130.863 27.964 94.2514 -6.53602 68.8032 17.4747L57.9321 28.3458L49.5542 19.9679L47.1733 22.3487L56.2475 31.423V34.59H54.5854C49.8012 34.5675 45.938 38.6329 46.2075 43.4171C46.4096 47.8644 50.2055 51.3907 54.563 51.3683H56.27V54.7374H39.4692V59.7687C39.4692 62.5538 37.2006 64.7999 34.438 64.7999C31.6528 64.7999 29.4067 62.5314 29.4067 59.7687V54.7374H12.0444C-11.4722 31.8273 20.5346 -2.15614 44.7026 19.8556L47.0835 17.4747C21.3881 -6.46864 -14.8414 27.6945 7.37251 54.7599L57.9546 105.634L72.5766 90.7872L70.1958 88.4064L59.6167 98.9855V81.6456H61.3012C65.9282 81.6456 69.7016 77.8722 69.7016 73.2452C69.7016 68.6183 65.9282 64.8448 61.3012 64.8448H59.6167V58.129H76.4174V53.0978C76.4174 50.3126 78.686 48.0665 81.4487 48.0665C84.2339 48.0665 86.4799 50.3351 86.4799 53.0978V58.129H100.473L72.644 85.9357L75.0249 88.3165L108.514 54.7599ZM61.3012 68.1915C64.0864 68.1915 66.3325 70.4601 66.3325 73.2228C66.3325 75.9855 64.0639 78.254 61.3012 78.254H56.27V98.963L15.3911 58.1066H26.0151V59.7911C26.0151 64.4181 29.7885 68.1915 34.4155 68.1915C39.0424 68.1915 42.8159 64.4181 42.8159 59.7911V58.1066H56.2475V68.1915H61.3012ZM89.8491 54.7599V53.0753C89.8491 48.4484 86.0757 44.6749 81.4487 44.6749C76.8217 44.6749 73.0483 48.4484 73.0483 53.0753V54.7599H59.6167V48.0441L54.563 48.0216C51.8003 48.0216 49.5542 45.753 49.5542 42.9903C49.5542 40.2052 51.8227 37.9591 54.5854 37.9591H59.6391V31.423L71.2065 19.8556C95.2397 -2.24598 127.426 32.1417 103.865 54.7599H89.8491Z" fill="#F2F2F2"/>
<path d="M15.9526 19.4736H19.3218V22.8428H15.9526V19.4736Z" fill="#F2F2F2"/>
<path d="M22.6685 19.4736H26.0376V22.8428H22.6685V19.4736Z" fill="#F2F2F2"/>
<path d="M76.4175 19.4736H79.7866V22.8428H76.4175V19.4736Z" fill="#F2F2F2"/>
<path d="M46.1851 61.4758H49.5542V64.845H46.1851V61.4758Z" fill="#F2F2F2"/>
<path d="M69.7017 61.4758H73.0708V64.845H69.7017V61.4758Z" fill="#F2F2F2"/>
</g>
<defs>
<clipPath id="clip0_206_740">
<rect width="115" height="115" fill="white" transform="translate(0.45459)"/>
</clipPath>
</defs>
</svg>
