<svg width="115" height="115" viewBox="0 0 115 115" fill="none" xmlns="http://www.w3.org/2000/svg">
<path d="M102.557 110.912H91.1914L91.2364 72.7734C91.2364 71.7852 90.4278 70.9766 89.4395 70.9766H75.4688C74.4805 70.9766 73.6719 71.7852 73.6719 72.7734L73.627 110.912H63.25L63.2949 84.0488C63.2949 83.0606 62.4864 82.252 61.4981 82.252H47.5274C46.5391 82.252 45.7305 83.0606 45.7305 84.0488L45.6856 110.912H35.3086V94.7852C35.3086 93.7969 34.5 92.9883 33.5117 92.9883H19.541C18.5527 92.9883 17.7441 93.7969 17.7441 94.7852V110.912H6.37891C5.39063 110.912 4.58203 111.721 4.58203 112.709C4.58203 113.697 5.39063 114.506 6.37891 114.506L102.602 114.596C103.59 114.596 104.398 113.787 104.398 112.799C104.398 111.811 103.545 110.912 102.557 110.912ZM77.2657 74.5254H87.6426L87.5977 110.867H77.2207L77.2657 74.5254ZM49.2793 85.7559H59.6563L59.6114 110.822H49.2344L49.2793 85.7559ZM21.3379 96.4922H31.7149V110.822H21.3379V96.4922Z" fill="#F2F2F2"/>
<path d="M82.5664 80.9941C81.5781 80.9941 80.7695 81.8027 80.7695 82.791V89.0801C80.7695 90.0684 81.5781 90.877 82.5664 90.877C83.5547 90.877 84.3633 90.0684 84.3633 89.0801V82.791C84.3633 81.8027 83.5547 80.9941 82.5664 80.9941Z" fill="#F2F2F2"/>
<path d="M82.5215 94.0215C81.5332 94.0215 80.7246 94.8301 80.7246 95.8184V99.8164C80.7246 100.805 81.5332 101.613 82.5215 101.613C83.5098 101.613 84.3184 100.805 84.3184 99.8164V95.8184C84.3184 94.8301 83.5547 94.0215 82.5215 94.0215Z" fill="#F2F2F2"/>
<path d="M53.9062 30.1426C57.2754 30.1426 60.0156 27.4023 60.0156 24.0781C60.0156 20.7539 57.2754 17.9688 53.9062 17.9688C50.5371 17.9688 47.7969 20.709 47.7969 24.0332C47.8418 27.4023 50.5371 30.1426 53.9062 30.1426ZM53.9062 21.5625C55.2988 21.5625 56.4219 22.6855 56.3769 24.0781C56.332 25.4707 55.2539 26.5937 53.8613 26.5488C52.4687 26.5488 51.3457 25.4258 51.3457 24.0332C51.4355 22.6855 52.5586 21.5625 53.9062 21.5625Z" fill="#F2F2F2"/>
<path d="M45.5958 77.0859C48.2911 78.7031 51.7501 77.8047 53.3223 75.1992L63.9239 57.7246L64.7325 57.6797L62.8009 71.5605C62.3966 74.6602 64.5977 77.4453 67.6524 77.8496C70.752 78.2539 73.5372 76.0527 73.9415 72.998L76.7266 52.5137C77.1759 49.0547 74.4356 46.0449 70.9766 46.1797L67.4727 46.3145L68.0567 43.2148L70.5723 43.3047C72.0548 43.3496 73.4923 42.8555 74.5704 41.8223L82.2071 34.8145C84.2735 32.9277 84.6329 29.873 83.1505 27.627V15.498H99.2774C101.568 15.498 102.871 12.8027 101.389 11.0508L98.918 7.99609L101.389 4.94141C102.871 3.14453 101.568 0.494141 99.2774 0.494141H81.3536C80.3653 0.494141 79.5567 1.30273 79.5567 2.29102C79.5567 5.07617 79.5567 22.3711 79.5118 25.1562C77.67 24.7969 75.8731 25.3359 74.5704 26.5039L68.6407 31.9395L63.5645 31.7598C60.7794 31.6699 58.3087 33.6465 57.8145 36.3867L55.2989 50.1328L43.6641 69.3594C42.0919 72.0098 42.9454 75.4688 45.5958 77.0859ZM95.6387 9.74805L97.4356 11.9492H83.1055V4.13281H97.4356L95.6387 6.28906C94.8302 7.27734 94.8302 8.75977 95.6387 9.74805ZM46.8087 71.2012L58.6231 51.7051C58.7579 51.5254 58.8028 51.3008 58.8477 51.0762L61.4083 37.0156C61.588 36.0273 62.4415 35.3086 63.4747 35.3535L69.2696 35.5781C69.7188 35.5781 70.213 35.4434 70.5274 35.1289L76.9962 29.1992C77.8497 28.4355 79.1075 28.4805 79.8712 29.334C80.6348 30.1426 80.5899 31.4453 79.7364 32.209L72.0997 39.2168C71.6954 39.5762 71.2012 39.7559 70.6622 39.7559L66.5743 39.6211C65.6759 39.5762 64.9122 40.2051 64.7325 41.1035L63.4747 47.9316C63.2501 49.0547 64.1934 50.0879 65.3165 50.043L71.0665 49.8633C72.2794 49.8184 73.3126 50.8965 73.1329 52.1543L70.3477 72.6387C70.213 73.7168 69.1798 74.5254 68.0567 74.3906C66.9337 74.2559 66.17 73.2227 66.3048 72.1445L68.5059 56.1523C68.6407 55.0293 67.7872 54.0859 66.6641 54.1309L62.7559 54.2656C62.127 54.2656 61.588 54.625 61.2735 55.1191L50.1778 73.4473C49.5938 74.4355 48.336 74.7051 47.3926 74.1211C45.7755 72.998 46.8087 71.2012 46.8087 71.2012Z" fill="#F2F2F2"/>
</svg>
