<svg width="47" height="47" viewBox="0 0 47 47" fill="none" xmlns="http://www.w3.org/2000/svg">
<path fill-rule="evenodd" clip-rule="evenodd" d="M0 22.795C0 9.69706 10.2617 0 23.5 0C36.7383 0 47 9.69706 47 22.795C47 35.893 36.7383 45.5901 23.5 45.5901C21.1222 45.5901 18.8409 45.2761 16.6975 44.6867C16.2808 44.5721 15.8377 44.6045 15.4423 44.7789L10.7779 46.8379C9.55778 47.3766 8.18049 46.5089 8.1396 45.1755L8.01162 40.9954C7.99588 40.4802 7.76417 39.999 7.38032 39.6554C2.80778 35.5663 0 29.6462 0 22.795ZM16.2915 18.5094L9.38835 29.4613C8.72588 30.5124 10.0178 31.6968 11.0075 30.9458L18.4226 25.3182C18.9242 24.9375 19.6173 24.9355 20.121 25.3133L25.6116 29.4312C27.2591 30.6669 29.6105 30.233 30.7086 28.4908L37.6118 17.5387C38.2741 16.4877 36.9822 15.3033 35.9925 16.0543L28.5774 21.6819C28.0758 22.0626 27.3827 22.0646 26.8789 21.6867L21.3885 17.5689C19.7409 16.3333 17.3895 16.7671 16.2915 18.5094Z" fill="#A30A24"/>
</svg>
